<?xml version="1.0" encoding="utf-8"?>
<!-- Generator: Adobe Illustrator 21.0.2, SVG Export Plug-In . SVG Version: 6.00 Build 0)  -->
<!DOCTYPE svg PUBLIC "-//W3C//DTD SVG 1.1//EN" "http://www.w3.org/Graphics/SVG/1.1/DTD/svg11.dtd">
<svg version="1.1" id="Layer_1" xmlns="http://www.w3.org/2000/svg" xmlns:xlink="http://www.w3.org/1999/xlink" x="0px" y="0px"
	 viewBox="0 0 186.9 60.2" style="enable-background:new 0 0 186.9 60.2;" xml:space="preserve">
<style type="text/css">
	.st0{fill:#01343D;}
</style>
<g id="XMLID_801_">
	<g id="LOGO_1_4_">
		<g id="XMLID_838_">
			<g id="XMLID_843_">
				<path id="XMLID_901_" class="st0" d="M0,19c0-0.2,0.2-0.4,0.4-0.4h9.1c0.2,0,0.4,0.2,0.4,0.4v2.4c0,0.2-0.2,0.4-0.4,0.4H3.4v2.7
					h5c0.2,0,0.4,0.2,0.4,0.4v2.4c0,0.2-0.2,0.4-0.4,0.4h-5v3h6.1c0.2,0,0.4,0.2,0.4,0.4v2.4c0,0.2-0.2,0.4-0.4,0.4H0.4
					C0.2,34,0,33.8,0,33.5V19z"/>
				<path id="XMLID_899_" class="st0" d="M12.9,19c0-0.2,0.2-0.4,0.4-0.4H16c0.2,0,0.4,0.2,0.4,0.4v11.8h5.2c0.2,0,0.4,0.2,0.4,0.4
					v2.4c0,0.2-0.2,0.4-0.4,0.4h-8.3c-0.2,0-0.4-0.2-0.4-0.4V19z"/>
				<path id="XMLID_897_" class="st0" d="M24.2,19c0-0.2,0.2-0.4,0.4-0.4h9.1c0.2,0,0.4,0.2,0.4,0.4v2.4c0,0.2-0.2,0.4-0.4,0.4h-6.1
					v2.7h5c0.2,0,0.4,0.2,0.4,0.4v2.4c0,0.2-0.2,0.4-0.4,0.4h-5v3h6.1c0.2,0,0.4,0.2,0.4,0.4v2.4c0,0.2-0.2,0.4-0.4,0.4h-9.1
					c-0.2,0-0.4-0.2-0.4-0.4V19z"/>
				<path id="XMLID_895_" class="st0" d="M43.9,18.3c2.2,0,3.8,0.7,5.3,2.1c0.2,0.2,0.2,0.4,0,0.6l-1.7,1.8c-0.2,0.2-0.4,0.2-0.6,0
					c-0.8-0.7-1.9-1.1-3-1.1c-2.5,0-4.3,2.1-4.3,4.5c0,2.4,1.9,4.5,4.3,4.5c1,0,2.2-0.4,3-1.1c0.2-0.1,0.4-0.1,0.6,0l1.7,1.8
					c0.2,0.2,0.1,0.4,0,0.6c-1.5,1.5-3.4,2.1-5.4,2.1c-4.4,0-8-3.5-8-7.9C36,21.9,39.5,18.3,43.9,18.3z"/>
				<path id="XMLID_893_" class="st0" d="M53.9,21.8h-3.2c-0.2,0-0.4-0.2-0.4-0.4V19c0-0.2,0.2-0.4,0.4-0.4h9.8
					c0.2,0,0.4,0.2,0.4,0.4v2.4c0,0.2-0.2,0.4-0.4,0.4h-3.2v11.8c0,0.2-0.2,0.4-0.4,0.4h-2.6c-0.2,0-0.4-0.2-0.4-0.4V21.8z"/>
				<path id="XMLID_891_" class="st0" d="M63.2,19c0-0.2,0.2-0.4,0.4-0.4h9.1c0.2,0,0.4,0.2,0.4,0.4v2.4c0,0.2-0.2,0.4-0.4,0.4h-6.1
					v2.7h5c0.2,0,0.4,0.2,0.4,0.4v2.4c0,0.2-0.2,0.4-0.4,0.4h-5v3h6.1c0.2,0,0.4,0.2,0.4,0.4v2.4c0,0.2-0.2,0.4-0.4,0.4h-9.1
					c-0.2,0-0.4-0.2-0.4-0.4V19z"/>
				<path id="XMLID_888_" class="st0" d="M76.1,19c0-0.2,0.2-0.4,0.4-0.4h5.4c4.3,0,7.7,3.5,7.7,7.7c0,4.3-3.5,7.7-7.7,7.7h-5.4
					c-0.2,0-0.4-0.2-0.4-0.4V19z M81.6,30.7c2.5,0,4.3-2,4.3-4.5c0-2.5-1.8-4.5-4.3-4.5h-2.1v8.9H81.6z"/>
				<path id="XMLID_886_" class="st0" d="M104,18.3c2.2,0,3.8,0.7,5.3,2.1c0.2,0.2,0.2,0.4,0,0.6l-1.7,1.8c-0.2,0.2-0.4,0.2-0.6,0
					c-0.8-0.7-1.9-1.1-3-1.1c-2.5,0-4.3,2.1-4.3,4.5c0,2.4,1.9,4.5,4.3,4.5c1,0,2.2-0.4,3-1.1c0.2-0.1,0.4-0.1,0.6,0l1.7,1.8
					c0.2,0.2,0.1,0.4,0,0.6c-1.5,1.5-3.4,2.1-5.4,2.1c-4.4,0-8-3.5-8-7.9C96,21.9,99.6,18.3,104,18.3z"/>
				<path id="XMLID_884_" class="st0" d="M112,19c0-0.2,0.2-0.4,0.4-0.4h2.6c0.2,0,0.4,0.2,0.4,0.4v14.6c0,0.2-0.2,0.4-0.4,0.4h-2.6
					c-0.2,0-0.4-0.2-0.4-0.4V19z"/>
				<path id="XMLID_882_" class="st0" d="M117.3,19.1c-0.1-0.3,0-0.6,0.4-0.6h2.9c0.2,0,0.3,0.1,0.4,0.2l3.6,8h0.1l3.6-8
					c0-0.1,0.2-0.2,0.4-0.2h2.9c0.3,0,0.5,0.3,0.4,0.6l-6.9,14.8c-0.1,0.1-0.2,0.2-0.4,0.2h-0.2c-0.2,0-0.3-0.1-0.4-0.2L117.3,19.1z
					"/>
				<path id="XMLID_880_" class="st0" d="M133.5,19c0-0.2,0.2-0.4,0.4-0.4h2.6c0.2,0,0.4,0.2,0.4,0.4v14.6c0,0.2-0.2,0.4-0.4,0.4
					h-2.6c-0.2,0-0.4-0.2-0.4-0.4V19z"/>
				<path id="XMLID_878_" class="st0" d="M140.1,19c0-0.2,0.2-0.4,0.4-0.4h2.6c0.2,0,0.4,0.2,0.4,0.4v11.8h5.2
					c0.2,0,0.4,0.2,0.4,0.4v2.4c0,0.2-0.2,0.4-0.4,0.4h-8.3c-0.2,0-0.4-0.2-0.4-0.4V19z"/>
				<path id="XMLID_876_" class="st0" d="M151,19c0-0.2,0.2-0.4,0.4-0.4h2.6c0.2,0,0.4,0.2,0.4,0.4v14.6c0,0.2-0.2,0.4-0.4,0.4h-2.6
					c-0.2,0-0.4-0.2-0.4-0.4V19z"/>
				<path id="XMLID_873_" class="st0" d="M156.6,33.4l6.9-14.8c0.1-0.1,0.2-0.2,0.4-0.2h0.2c0.2,0,0.3,0.1,0.4,0.2l6.9,14.8
					c0.1,0.3,0,0.6-0.4,0.6h-2.4c-0.4,0-0.6-0.1-0.8-0.6l-0.8-1.7h-6l-0.8,1.8c-0.1,0.3-0.4,0.5-0.8,0.5H157
					C156.7,34,156.5,33.7,156.6,33.4z M165.7,28.7L164,25h0l-1.7,3.6H165.7z"/>
				<path id="XMLID_871_" class="st0" d="M173.2,18.7c0-0.2,0.2-0.4,0.4-0.4h0.6l8.8,8.5h0V19c0-0.2,0.2-0.4,0.4-0.4h2.6
					c0.2,0,0.4,0.2,0.4,0.4v14.8c0,0.2-0.2,0.4-0.4,0.4h-0.4c-0.1,0-0.2-0.1-0.3-0.1l-8.7-8.8h0v8.2c0,0.2-0.2,0.4-0.4,0.4h-2.6
					c-0.2,0-0.4-0.2-0.4-0.4L173.2,18.7z"/>
				<path id="XMLID_868_" class="st0" d="M0,42c0-0.3,0.2-0.5,0.5-0.5h7.9c3.2,0,5.7,2.5,5.7,5.7c0,2.4-1.6,4.4-3.9,5.3l3.6,6.7
					c0.2,0.3,0,0.8-0.4,0.8H9.9c-0.2,0-0.4-0.1-0.4-0.2l-3.5-7H4.2v6.7c0,0.3-0.2,0.5-0.5,0.5H0.5c-0.3,0-0.5-0.2-0.5-0.5V42z
					 M8,49.4c1.1,0,2-1,2-2.1c0-1.1-0.9-2-2-2H4.2v4.1H8z"/>
				<path id="XMLID_866_" class="st0" d="M16.5,42c0-0.3,0.2-0.5,0.5-0.5h10.9c0.3,0,0.5,0.2,0.5,0.5v2.9c0,0.3-0.2,0.5-0.5,0.5
					h-7.3v3.3h6c0.3,0,0.5,0.2,0.5,0.5V52c0,0.3-0.2,0.5-0.5,0.5h-6v3.5h7.3c0.3,0,0.5,0.2,0.5,0.5v2.9c0,0.3-0.2,0.5-0.5,0.5H17
					c-0.3,0-0.5-0.2-0.5-0.5V42z"/>
				<path id="XMLID_864_" class="st0" d="M29.9,42.2c-0.2-0.3,0.1-0.7,0.4-0.7h3.5c0.2,0,0.4,0.2,0.4,0.3l4.3,9.6h0.2l4.3-9.6
					c0.1-0.1,0.2-0.3,0.4-0.3h3.5c0.4,0,0.6,0.3,0.4,0.7l-8.2,17.7c-0.1,0.2-0.2,0.3-0.4,0.3h-0.3c-0.2,0-0.4-0.1-0.4-0.3L29.9,42.2
					z"/>
				<path id="XMLID_862_" class="st0" d="M49.3,42c0-0.3,0.2-0.5,0.5-0.5H53c0.3,0,0.5,0.2,0.5,0.5v17.4c0,0.3-0.2,0.5-0.5,0.5h-3.2
					c-0.3,0-0.5-0.2-0.5-0.5V42z"/>
				<path id="XMLID_860_" class="st0" d="M57.3,42c0-0.3,0.2-0.5,0.5-0.5h10.9c0.3,0,0.5,0.2,0.5,0.5v2.9c0,0.3-0.2,0.5-0.5,0.5
					h-7.3v3.3h6c0.3,0,0.5,0.2,0.5,0.5V52c0,0.3-0.2,0.5-0.5,0.5h-6v3.5h7.3c0.3,0,0.5,0.2,0.5,0.5v2.9c0,0.3-0.2,0.5-0.5,0.5H57.8
					c-0.3,0-0.5-0.2-0.5-0.5V42z"/>
				<path id="XMLID_856_" class="st0" d="M101.7,42c0-0.3,0.2-0.5,0.5-0.5h6.1c3.1,0,5.6,2.1,5.6,4.9c0,2-1.8,3.5-3,4.2
					c1.4,0.6,3.5,1.9,3.5,4.3c0,2.9-2.6,5.1-5.7,5.1h-6.5c-0.3,0-0.5-0.2-0.5-0.5V42z M107.8,49c1,0,1.8-0.8,1.8-1.9
					c0-1.1-0.8-1.8-1.8-1.8h-2V49H107.8z M108.1,56.2c1,0,1.9-0.8,1.9-1.9c0-1.1-1.1-1.8-2.2-1.8h-2.1v3.8H108.1z"/>
				<path id="XMLID_853_" class="st0" d="M125.1,41.3c5.3,0,9.5,4.2,9.5,9.5c0,5.3-4.2,9.4-9.5,9.4c-5.3,0-9.4-4.2-9.4-9.4
					C115.7,45.5,119.8,41.3,125.1,41.3z M125.1,56c2.9,0,5.3-2.4,5.3-5.2c0-2.9-2.4-5.3-5.3-5.3c-2.9,0-5.2,2.4-5.2,5.3
					C119.9,53.6,122.2,56,125.1,56z"/>
				<path id="XMLID_850_" class="st0" d="M134.5,59.2l7.9-17.7c0.1-0.2,0.3-0.3,0.4-0.3h0.3c0.2,0,0.4,0.1,0.4,0.3l8.2,17.7
					c0.2,0.3-0.1,0.7-0.4,0.7h-2.9c-0.5,0-0.7-0.2-0.9-0.7l-0.9-2.1h-7.1l-0.9,2.1c-0.1,0.3-0.4,0.6-0.9,0.6h-2.9
					C134.2,59.9,134.3,59.6,134.5,59.2z M144.9,53.6l-2-4.3h0l-2,4.3H144.9z"/>
				<path id="XMLID_847_" class="st0" d="M153.9,42c0-0.3,0.2-0.5,0.5-0.5h7.9c3.2,0,5.7,2.5,5.7,5.7c0,2.4-1.6,4.4-3.9,5.3l3.6,6.7
					c0.2,0.3,0,0.8-0.4,0.8h-3.5c-0.2,0-0.4-0.1-0.4-0.2l-3.5-7H158v6.7c0,0.3-0.2,0.5-0.5,0.5h-3.1c-0.3,0-0.5-0.2-0.5-0.5V42z
					 M161.9,49.4c1.1,0,2-1,2-2.1c0-1.1-0.9-2-2-2H158v4.1H161.9z"/>
				<path id="XMLID_844_" class="st0" d="M170.8,42c0-0.3,0.2-0.5,0.5-0.5h6.4c5.1,0,9.2,4.1,9.2,9.2c0,5.1-4.2,9.2-9.2,9.2h-6.4
					c-0.3,0-0.5-0.2-0.5-0.5V42z M177.4,56c3,0,5.1-2.3,5.1-5.3c0-3-2.2-5.3-5.1-5.3h-2.5V56H177.4z"/>
			</g>
			<path id="XMLID_839_" class="st0" d="M70.7,42c-0.1-0.4,0.1-0.6,0.5-0.6h3c0.2,0,0.4,0.2,0.5,0.4l2.2,8.8h0.1l4-9.2
				c0.1-0.2,0.2-0.3,0.4-0.3H82c0.2,0,0.4,0.1,0.4,0.3l4,9.2h0.1l2.2-8.8c0.1-0.2,0.3-0.4,0.5-0.4h3c0.4,0,0.6,0.3,0.5,0.6
				l-4.9,17.5c-0.1,0.2-0.3,0.4-0.5,0.4H87c-0.2,0-0.4-0.1-0.4-0.3L81.8,49h-0.1L77,59.6c-0.1,0.2-0.3,0.3-0.4,0.3h-0.4
				c-0.2,0-0.4-0.2-0.5-0.4L70.7,42z"/>
		</g>
	</g>
	<g id="XMLID_24_">
		<g>
			<path id="XMLID_338_" class="st0" d="M0.1,0.3C0.1,0.1,0.2,0,0.4,0h0.4l6.5,7.5h0V0.4c0-0.2,0.1-0.3,0.3-0.3h1
				c0.1,0,0.3,0.1,0.3,0.3v10.1c0,0.1-0.1,0.3-0.3,0.3H8.1L1.6,3.1h0v7.3c0,0.2-0.1,0.3-0.3,0.3H0.4c-0.1,0-0.3-0.1-0.3-0.3V0.3z"/>
			<path id="XMLID_336_" class="st0" d="M13.6,5.6l-3.5-5c-0.1-0.2,0-0.4,0.2-0.4h1.1c0.1,0,0.2,0.1,0.2,0.1l2.7,3.8l2.7-3.8
				c0-0.1,0.1-0.1,0.2-0.1h1.1c0.2,0,0.4,0.2,0.2,0.4l-3.6,5v4.8c0,0.2-0.1,0.3-0.3,0.3h-1c-0.2,0-0.3-0.1-0.3-0.3V5.6z"/>
			<path id="XMLID_334_" class="st0" d="M24.4,0C25.9,0,27,0.5,28,1.4c0.1,0.1,0.1,0.3,0,0.4l-0.7,0.7c-0.1,0.1-0.2,0.1-0.4,0
				c-0.7-0.6-1.7-1-2.6-1c-2.1,0-3.8,1.8-3.8,3.9c0,2.1,1.6,3.9,3.8,3.9c1.1,0,1.9-0.4,2.6-1c0.1-0.1,0.3-0.1,0.4,0L28,8.9
				c0.1,0.1,0.1,0.3,0,0.4c-1,1-2.3,1.5-3.6,1.5c-3,0-5.4-2.4-5.4-5.4S21.4,0,24.4,0z"/>
			<path id="XMLID_332_" class="st0" d="M37.6,0c1.5,0,2.6,0.5,3.6,1.4c0.1,0.1,0.1,0.3,0,0.4l-0.7,0.7c-0.1,0.1-0.2,0.1-0.4,0
				c-0.7-0.6-1.7-1-2.6-1c-2.1,0-3.8,1.8-3.8,3.9c0,2.1,1.6,3.9,3.8,3.9c1.1,0,1.9-0.4,2.6-1c0.1-0.1,0.3-0.1,0.4,0l0.7,0.7
				c0.1,0.1,0.1,0.3,0,0.4c-1,1-2.3,1.5-3.6,1.5c-3,0-5.4-2.4-5.4-5.4S34.6,0,37.6,0z"/>
			<path id="XMLID_329_" class="st0" d="M44.6,6.9c0.6,0,1.2,0.2,1.2,0.2c0-0.9-0.2-1.3-0.9-1.3c-0.7,0-1.4,0.2-1.7,0.3
				c-0.2,0-0.3-0.1-0.3-0.2l-0.1-0.6c0-0.2,0.1-0.3,0.2-0.3c0.1,0,1-0.3,2.1-0.3c1.9,0,2.1,1.2,2.1,2.7v3.2c0,0.2-0.1,0.3-0.3,0.3
				h-0.4c-0.1,0-0.2-0.1-0.3-0.2L46,10c-0.3,0.3-0.9,0.8-1.8,0.8c-1.1,0-1.9-0.8-1.9-2C42.2,7.7,43,6.9,44.6,6.9z M44.4,9.7
				c0.6,0,1.2-0.4,1.4-0.8V8c-0.1-0.1-0.5-0.2-1-0.2c-0.7,0-1.2,0.4-1.2,1C43.5,9.3,43.8,9.7,44.4,9.7z"/>
			<path id="XMLID_327_" class="st0" d="M48.7,4.9c0-0.1,0.1-0.3,0.3-0.3h0.4c0.1,0,0.2,0.1,0.3,0.2l0.2,0.5c0.1-0.1,0.8-0.8,2-0.8
				c0.9,0,1.5,0.3,1.9,1c0.2-0.2,1-1,2.2-1c1.8,0,2.5,1.3,2.5,2.9v3c0,0.2-0.1,0.3-0.3,0.3h-0.8c-0.2,0-0.3-0.1-0.3-0.3V7.3
				c0-0.9-0.4-1.5-1.2-1.5c-0.9,0-1.4,0.6-1.5,0.7c0,0.1,0,0.4,0,0.7v3.1c0,0.2-0.1,0.3-0.3,0.3h-0.8c-0.2,0-0.3-0.1-0.3-0.3V7.3
				c0-1-0.4-1.5-1.3-1.5c-0.9,0-1.4,0.7-1.5,0.9v3.7c0,0.2-0.1,0.3-0.3,0.3H49c-0.1,0-0.3-0.1-0.3-0.3V4.9z"/>
			<path id="XMLID_324_" class="st0" d="M61.5,14.9c0,0.2-0.1,0.3-0.3,0.3h-0.8c-0.1,0-0.3-0.1-0.3-0.3V4.9c0-0.1,0.1-0.3,0.3-0.3
				h0.5c0.1,0,0.2,0.1,0.3,0.2l0.1,0.4c0.1-0.1,0.7-0.7,1.8-0.7c1.6,0,2.9,1.4,2.9,3.2c0,1.8-1.3,3.1-2.9,3.1
				c-0.8,0-1.4-0.3-1.5-0.4V14.9z M62.8,9.5c1,0,1.7-0.8,1.7-1.8c0-1-0.6-1.9-1.6-1.9c-0.9,0-1.3,0.7-1.4,0.9v2.4
				C61.5,9.1,62,9.5,62.8,9.5z"/>
			<path id="XMLID_321_" class="st0" d="M69.2,6.9c0.6,0,1.2,0.2,1.2,0.2c0-0.9-0.2-1.3-0.9-1.3c-0.7,0-1.4,0.2-1.7,0.3
				c-0.2,0-0.3-0.1-0.3-0.2l-0.1-0.6c0-0.2,0.1-0.3,0.2-0.3c0.1,0,1-0.3,2.1-0.3c1.9,0,2.1,1.2,2.1,2.7v3.2c0,0.2-0.1,0.3-0.3,0.3
				h-0.4c-0.1,0-0.2-0.1-0.3-0.2L70.5,10c-0.3,0.3-0.9,0.8-1.8,0.8c-1.1,0-1.9-0.8-1.9-2C66.8,7.7,67.6,6.9,69.2,6.9z M69,9.7
				c0.6,0,1.2-0.4,1.4-0.8V8c-0.1-0.1-0.5-0.2-1-0.2c-0.7,0-1.2,0.4-1.2,1C68.1,9.3,68.4,9.7,69,9.7z"/>
			<path id="XMLID_318_" class="st0" d="M73.2,1.3c0-0.5,0.4-0.9,0.9-0.9c0.5,0,0.9,0.4,0.9,0.9c0,0.5-0.4,0.9-0.9,0.9
				C73.5,2.2,73.2,1.8,73.2,1.3z M73.3,4.9c0-0.1,0.1-0.3,0.3-0.3h0.9c0.2,0,0.3,0.1,0.3,0.3v5.4c0,0.2-0.1,0.3-0.3,0.3h-0.9
				c-0.1,0-0.3-0.1-0.3-0.3V4.9z"/>
			<path id="XMLID_314_" class="st0" d="M76.9,8.6c0,0-0.5-0.6-0.5-1.5c0-1.4,1-2.6,2.6-2.6h2.6c0.2,0,0.3,0.1,0.3,0.3v0.4
				c0,0.1-0.1,0.2-0.2,0.3L81,5.6c0,0,0.6,0.5,0.6,1.6c0,1.3-1,2.4-2.5,2.4c-0.8,0-1.2-0.2-1.3-0.2c-0.1,0-0.6,0.3-0.6,0.7
				c0,0.3,0.3,0.6,0.7,0.6h2c1.3,0,2.4,0.7,2.4,2c0,1.3-1.2,2.5-3.2,2.5c-2.1,0-3-1.1-3-2.1c0-0.9,0.7-1.3,0.9-1.4v0
				c-0.3-0.1-1.1-0.5-1.1-1.5C75.9,9.1,76.9,8.6,76.9,8.6z M79,14.1c0.9,0,1.7-0.5,1.7-1.2c0-0.2-0.1-0.9-1.1-0.9
				c-0.4,0-0.9,0-1.3,0c-0.1,0-0.8,0.3-0.8,0.9C77.5,13.6,78.1,14.1,79,14.1z M80.3,7.2c0-0.8-0.5-1.4-1.3-1.4
				c-0.8,0-1.3,0.6-1.3,1.4c0,0.8,0.6,1.4,1.3,1.4C79.8,8.5,80.3,8,80.3,7.2z"/>
			<path id="XMLID_312_" class="st0" d="M83.1,4.9c0-0.1,0.1-0.3,0.3-0.3h0.4c0.1,0,0.2,0.1,0.2,0.2l0.2,0.5
				c0.1-0.1,0.9-0.8,2.1-0.8c1.8,0,2.5,1.3,2.5,2.9v3c0,0.2-0.1,0.3-0.3,0.3h-0.9c-0.2,0-0.3-0.1-0.3-0.3V7.3c0-1-0.5-1.5-1.2-1.5
				c-0.9,0-1.6,0.7-1.7,0.9v3.7c0,0.2-0.1,0.3-0.3,0.3h-0.8c-0.1,0-0.3-0.1-0.3-0.3V4.9z"/>
			<path id="XMLID_310_" class="st0" d="M94.1,5.9h-0.7c-0.2,0-0.3-0.1-0.3-0.3V4.9c0-0.2,0.1-0.3,0.3-0.3h0.7V2.8
				c0-1.9,1.1-2.8,2.5-2.8c0.8,0,1.4,0.4,1.7,0.6c0.1,0.1,0.1,0.2,0.1,0.3L98,1.6c-0.1,0.1-0.2,0.1-0.4,0c-0.2-0.1-0.6-0.4-1-0.4
				c-0.7,0-1.1,0.5-1.1,1.5v1.9h1.6c0.2,0,0.3,0.1,0.3,0.3v0.7c0,0.2-0.1,0.3-0.3,0.3h-1.6v4.5c0,0.2-0.1,0.3-0.3,0.3h-0.9
				c-0.2,0-0.3-0.1-0.3-0.3V5.9z"/>
			<path id="XMLID_307_" class="st0" d="M101,4.5c1.7,0,3,1.4,3,3.1c0,1.7-1.4,3.2-3,3.2c-1.7,0-3-1.4-3-3.2
				C98,5.9,99.3,4.5,101,4.5z M101,9.5c0.9,0,1.7-0.8,1.7-1.9c0-1-0.8-1.8-1.7-1.8c-0.9,0-1.7,0.8-1.7,1.8C99.3,8.7,100,9.5,101,9.5
				z"/>
			<path id="XMLID_305_" class="st0" d="M105.3,4.9c0-0.1,0.1-0.3,0.3-0.3h0.4c0.1,0,0.2,0.1,0.3,0.2l0.2,0.5
				c0.1-0.1,0.7-0.9,1.8-0.9c0.6,0,1.3,0.1,1.1,0.6l-0.4,0.7c-0.1,0.2-0.2,0.2-0.4,0.1c-0.1,0-0.3-0.1-0.5-0.1
				c-0.9,0-1.3,0.6-1.4,0.7v3.8c0,0.3-0.2,0.3-0.4,0.3h-0.7c-0.1,0-0.3-0.1-0.3-0.3V4.9z"/>
			<path id="XMLID_302_" class="st0" d="M115.2,6.9c0.6,0,1.2,0.2,1.2,0.2c0-0.9-0.2-1.3-0.9-1.3c-0.7,0-1.4,0.2-1.7,0.3
				c-0.2,0-0.3-0.1-0.3-0.2l-0.1-0.6c0-0.2,0.1-0.3,0.2-0.3c0.1,0,1-0.3,2.1-0.3c1.9,0,2.1,1.2,2.1,2.7v3.2c0,0.2-0.1,0.3-0.3,0.3
				h-0.4c-0.1,0-0.2-0.1-0.3-0.2l-0.1-0.4c-0.3,0.3-0.9,0.8-1.8,0.8c-1.1,0-1.9-0.8-1.9-2C112.8,7.7,113.6,6.9,115.2,6.9z M115,9.7
				c0.6,0,1.2-0.4,1.4-0.8V8c-0.1-0.1-0.5-0.2-1-0.2c-0.7,0-1.2,0.4-1.2,1C114.1,9.3,114.4,9.7,115,9.7z"/>
			<path id="XMLID_300_" class="st0" d="M119.3,4.9c0-0.1,0.1-0.3,0.3-0.3h0.4c0.1,0,0.2,0.1,0.2,0.2l0.2,0.5
				c0.1-0.1,0.9-0.8,2.1-0.8c1.8,0,2.5,1.3,2.5,2.9v3c0,0.2-0.1,0.3-0.3,0.3h-0.9c-0.2,0-0.3-0.1-0.3-0.3V7.3c0-1-0.5-1.5-1.2-1.5
				c-0.9,0-1.6,0.7-1.7,0.9v3.7c0,0.2-0.1,0.3-0.3,0.3h-0.8c-0.1,0-0.3-0.1-0.3-0.3V4.9z"/>
		</g>
	</g>
</g>
</svg>
